<?xml version="1.0" standalone="no"?>
<svg xmlns="http://www.w3.org/2000/svg" width="48" height="48"><rect width="48" height="48" opacity="0"></rect><g><path d="M37.2 44.11Q37.82 43.68 38.09 43.01Q38.35 42.34 38.16 41.62L35.52 30.96Q35.33 30.29 35.54 29.62Q35.76 28.94 36.34 28.51L44.64 21.55Q45.22 21.07 45.41 20.38Q45.6 19.68 45.36 19.01Q45.12 18.34 44.57 17.88Q44.02 17.42 43.3 17.38L32.5 16.56Q31.78 16.51 31.22 16.13Q30.67 15.74 30.43 15.07L26.21 4.9Q25.92 4.22 25.32 3.82Q24.72 3.41 24 3.41Q23.28 3.41 22.68 3.82Q22.08 4.22 21.79 4.9L17.57 15.07Q17.33 15.74 16.78 16.13Q16.22 16.51 15.5 16.56L4.7 17.38Q3.98 17.42 3.43 17.88Q2.88 18.34 2.64 19.01Q2.4 19.68 2.59 20.38Q2.78 21.07 3.36 21.55L11.66 28.51Q12.19 28.99 12.43 29.64Q12.67 30.29 12.48 30.96L9.84 41.62Q9.65 42.34 9.91 43.03Q10.18 43.73 10.8 44.11Q11.38 44.54 12.1 44.57Q12.82 44.59 13.44 44.16L22.66 38.21Q23.28 37.82 23.98 37.82Q24.67 37.82 25.3 38.21L34.51 44.16Q35.04 44.54 35.86 44.52Q36.67 44.5 37.2 44.11ZM15.74 19.54Q17.28 19.49 18.53 18.58Q19.78 17.66 20.35 16.22L24 7.44L27.65 16.22Q28.27 17.66 29.52 18.58Q30.77 19.49 32.26 19.54L41.57 20.26L34.42 26.21Q33.22 27.17 32.74 28.66Q32.26 30.14 32.64 31.68L34.85 40.8L26.98 35.71Q25.63 34.85 24.02 34.85Q22.42 34.85 21.07 35.71L13.15 40.8L15.41 31.68Q15.79 30.14 15.29 28.66Q14.78 27.17 13.58 26.21L6.43 20.26L15.74 19.54Z" fill="rgba(0,0,0,1)"></path></g></svg>